<svg width="17" height="17" viewBox="0 0 17 17" fill="none" xmlns="http://www.w3.org/2000/svg">
  <path d="M10.9017 9.3571C11.2877 9.47761 11.6575 9.6441 12.0031 9.85294L11.981 9.84019C12.3586 10.0066 12.6849 10.2014 12.9825 10.4302L12.9718 10.4224C12.9861 10.4656 12.9947 10.5145 12.9947 10.5662L12.994 10.5889V10.5882C12.9832 10.8921 12.9154 11.1775 12.8005 11.4375L12.8062 11.4226C12.6413 11.7506 12.3665 12.0034 12.0303 12.138L12.0203 12.1416C11.6724 12.322 11.2877 12.4216 10.8953 12.4327H10.891C10.142 12.3371 9.41815 12.1011 8.75805 11.7371L8.78875 11.7527C8.08761 11.4375 7.45003 10.9985 6.90708 10.4571L6.90636 10.4564C6.31415 9.84459 5.77719 9.18235 5.30166 8.47736L5.26811 8.42494C4.79621 7.81284 4.52243 7.07316 4.48289 6.30349L4.48217 6.29428V6.20645C4.49265 5.87767 4.57045 5.55445 4.71084 5.25646C4.85124 4.95848 5.05128 4.69197 5.2988 4.47316L5.30094 4.47104C5.45384 4.31987 5.65978 4.2333 5.87558 4.22949H5.8763C5.94839 4.23162 6.01764 4.23729 6.08474 4.2472L6.07546 4.24579C6.13756 4.25499 6.20966 4.26066 6.2839 4.26208H6.28604C6.38997 4.25205 6.49423 4.27754 6.58157 4.33433L6.58014 4.33362C6.65652 4.4172 6.71505 4.51849 6.75003 4.6297L6.75146 4.63537C6.81047 4.78176 6.9323 5.10381 7.11694 5.60153C7.21331 5.82395 7.30754 6.09807 7.3832 6.37999L7.3932 6.42461C7.34171 6.67114 7.2076 6.8931 7.01272 7.05432L7.01058 7.05574C6.75598 7.32301 6.62868 7.49301 6.62868 7.56573C6.6314 7.62537 6.65149 7.68294 6.6865 7.73148L6.68579 7.73078C6.96187 8.29712 7.3436 8.80642 7.81079 9.23173L7.81436 9.23527C8.30345 9.67246 8.85175 10.0396 9.44333 10.3261L9.48545 10.3445C9.55779 10.3911 9.6413 10.4177 9.72744 10.4217H9.72887C9.83975 10.4217 10.0391 10.2442 10.3271 9.88906C10.615 9.53395 10.8063 9.3564 10.901 9.3564L10.9017 9.3571ZM8.65526 15.1768H8.67096C9.60828 15.1781 10.5356 14.9853 11.3935 14.6108L11.35 14.6278C13.0318 13.9237 14.3431 12.6225 15.0355 10.9983L15.0527 10.9537C15.4024 10.1653 15.6059 9.2459 15.6059 8.27973C15.6059 7.31357 15.4024 6.39415 15.0355 5.56187L15.0527 5.60578C14.3431 3.93695 13.0318 2.63575 11.395 1.94867L11.35 1.93167C10.5555 1.58459 9.62893 1.38271 8.65526 1.38271C7.68159 1.38271 6.75503 1.58459 5.91627 1.94867L5.96053 1.93167C4.27873 2.63575 2.96742 3.93695 2.27499 5.56116L2.25786 5.60578C1.88981 6.45276 1.70149 7.36588 1.70464 8.28823C1.70233 9.74656 2.17257 11.167 3.04594 12.3399L3.03237 12.3215L2.15793 14.8807L4.83624 14.0349C5.95509 14.7827 7.27418 15.1804 8.62314 15.1768H8.65669H8.65526ZM8.65526 4.81206e-05H8.67882C9.84094 4.81206e-05 10.946 0.242297 11.9446 0.679338L11.8925 0.658796C13.9091 1.50667 15.4817 3.06712 16.3154 5.01433L16.3361 5.06816C16.7559 6.0152 17 7.11949 17 8.28044C17 9.4414 16.7559 10.5457 16.3154 11.5451L16.3361 11.4927C15.4817 13.4938 13.9091 15.0542 11.9468 15.8815L11.8925 15.9021C10.9452 16.3186 9.84023 16.5608 8.6781 16.5608H8.65383H8.65526H8.61743C7.14764 16.5608 5.76779 16.1776 4.57426 15.5068L4.61495 15.5281L0 17L1.50548 12.5524C0.719627 11.2697 0.306101 9.79647 0.310519 8.29532C0.310519 7.1294 0.55465 6.02016 0.995087 5.01503L0.974386 5.06816C1.82885 3.06712 3.40143 1.50667 5.36376 0.679338L5.41801 0.658796C6.4319 0.22055 7.52652 -0.00377758 8.63242 4.81206e-05H8.65597H8.65455H8.65526Z" fill="white" />
</svg>