<svg width="154" height="48" viewBox="0 0 154 48" fill="none" xmlns="http://www.w3.org/2000/svg">
  <path d="M70 0H42V48H70V0Z" fill="#EC0D0D" />
  <path d="M58.0811 29.4115C59.1892 29.3971 60.2912 29.5767 61.3362 29.9422C62.2533 30.2627 63.1011 30.7517 63.8351 31.3837C64.5187 31.9795 65.065 32.7141 65.4368 33.5377C65.8082 34.3788 66 35.2871 66 36.2053C66 37.1235 65.8082 38.0318 65.4368 38.8729C65.0652 39.6967 64.5189 40.4316 63.8351 41.0275C63.101 41.6595 62.2532 42.1485 61.3362 42.469C60.2912 42.8345 59.1892 43.014 58.0811 42.9991H45V22H63.6952V26.941H51.2317V29.4115H58.0811ZM57.6114 38.0582C58.1747 38.0786 58.7248 37.8859 59.1501 37.5192C59.3409 37.3565 59.4941 37.1549 59.599 36.9281C59.704 36.7013 59.7583 36.4548 59.7583 36.2053C59.7583 35.9558 59.704 35.7093 59.599 35.4825C59.4941 35.2558 59.3409 35.0541 59.1501 34.8914C58.7247 34.5249 58.1747 34.3323 57.6114 34.3524H51.2317V38.0582H57.6114Z" fill="white" />
  <path d="M101 0H73V48H101V0Z" fill="#EC0D0D" />
  <path d="M83.1765 22V33.5003L93.3236 22H98V43H91.8235V31.8824L81.6752 43H77V22H83.1765Z" fill="white" />
  <path d="M38 0H0V48H38V0Z" fill="#EC0D0D" />
  <path d="M21.5648 22V30.8343L26.2938 22H33.2997L27.1694 32.3335L34 43H26.9942L21.5648 33.9998V43H15.4352V33.9998L10.0058 43H3L9.83061 32.3335L3.70094 22H10.7062L15.4352 30.8343V22H21.5648Z" fill="white" />
  <path d="M122.621 28.0011C123.565 27.9895 124.5 28.1787 125.367 28.5566C126.173 28.9115 126.893 29.4399 127.478 30.1052C128.067 30.7847 128.498 31.5903 128.738 32.4618C129.003 33.4434 129.068 34.4695 128.928 35.4774C128.809 36.5344 128.496 37.5596 128.006 38.5001C127.541 39.3946 126.921 40.1963 126.175 40.8664C125.441 41.5225 124.6 42.0434 123.69 42.4054C122.773 42.7709 121.796 42.9569 120.81 42.9537C120.195 42.9674 119.581 42.8871 118.99 42.7156C118.557 42.5847 118.146 42.3924 117.767 42.1445C117.415 41.9199 117.096 41.6472 116.818 41.3341L116.01 48H113L115.403 28.1598H117.579L118.072 29.6363C118.417 29.3195 118.796 29.0429 119.202 28.8115C119.661 28.5905 120.138 28.4071 120.626 28.2632C121.275 28.0774 121.947 27.9891 122.621 28.0011ZM120.981 40.1918C121.562 40.1915 122.137 40.0755 122.675 39.8504C123.23 39.6188 123.741 39.2881 124.182 38.874C124.641 38.445 125.026 37.9405 125.319 37.3819C125.631 36.79 125.829 36.1438 125.903 35.4773C125.991 34.8408 125.95 34.1926 125.782 33.5728C125.629 33.0255 125.364 32.5169 125.005 32.0795C124.659 31.6619 124.224 31.329 123.734 31.1056C123.227 30.8752 122.677 30.7587 122.122 30.7641C121.538 30.765 120.961 30.8809 120.421 31.1056C119.863 31.3326 119.351 31.6628 118.912 32.0795C118.456 32.5126 118.074 33.0197 117.782 33.58C117.473 34.1701 117.276 34.8136 117.2 35.4773C117.111 36.1139 117.153 36.7621 117.321 37.3819C117.473 37.9277 117.734 38.4357 118.089 38.874C118.433 39.2946 118.868 39.6288 119.361 39.8504C119.871 40.0801 120.423 40.1965 120.981 40.1918Z" fill="white" />
  <path d="M142.589 22H145.611L144.8 28.7498C145.094 28.5782 145.415 28.4122 145.763 28.2519C146.071 28.1436 146.424 28.0336 146.821 27.922C147.245 27.8059 147.683 27.749 148.122 27.7528C148.969 27.7488 149.806 27.9379 150.573 28.3064C151.339 28.6749 152.015 29.2135 152.553 29.8831C153.107 30.5855 153.513 31.398 153.744 32.269C154.005 33.2638 154.067 34.302 153.928 35.3219C153.808 36.391 153.497 37.4284 153.01 38.3822C152.556 39.276 151.96 40.0858 151.244 40.7778C150.562 41.435 149.771 41.9627 148.908 42.3359C148.085 42.6978 147.2 42.8866 146.304 42.891C145.879 42.8965 145.454 42.8474 145.04 42.745C144.706 42.6622 144.379 42.5498 144.063 42.409C143.758 42.2902 143.473 42.1221 143.219 41.9111L142.488 48H139.467L140.198 41.9111C139.893 42.1074 139.571 42.2741 139.236 42.409C138.887 42.5496 138.528 42.6619 138.161 42.745C137.741 42.844 137.311 42.893 136.88 42.8911C136.027 42.8962 135.183 42.7066 134.41 42.336C133.65 41.9741 132.978 41.4415 132.446 40.7778C131.891 40.0757 131.486 39.2626 131.256 38.3908C130.994 37.3908 130.932 36.3471 131.074 35.322C131.193 34.2553 131.504 33.2203 131.991 32.2691C132.445 31.379 133.041 30.5726 133.755 29.8832C134.438 29.2237 135.23 28.6929 136.094 28.3153C136.916 27.9493 137.802 27.7579 138.698 27.7529C139.118 27.7494 139.537 27.8063 139.941 27.9221C140.322 28.0341 140.654 28.1441 140.936 28.252C141.233 28.3872 141.516 28.5541 141.779 28.7499L142.589 22ZM141.405 31.8673C141.186 31.6231 140.943 31.4024 140.68 31.2087C140.419 31.0213 140.137 30.8672 139.84 30.7498C139.478 30.6103 139.094 30.5426 138.708 30.5502C138.161 30.5521 137.62 30.6638 137.115 30.8789C136.588 31.1001 136.109 31.4252 135.704 31.8356C135.274 32.2718 134.918 32.7793 134.653 33.3366C134.358 33.9612 134.17 34.6325 134.095 35.3219C134.001 35.9908 134.028 36.6716 134.175 37.3305C134.296 37.8742 134.531 38.3844 134.865 38.8253C135.181 39.2306 135.586 39.5528 136.048 39.765C136.524 39.9852 137.04 40.0978 137.561 40.0949C137.962 40.0991 138.361 40.0336 138.741 39.9014C139.075 39.7861 139.395 39.63 139.692 39.4364C140.006 39.246 140.302 39.025 140.575 38.7767L141.405 31.8673ZM143.596 38.7766C143.816 39.0203 144.059 39.2413 144.321 39.4364C144.582 39.6234 144.864 39.7772 145.162 39.8941C145.524 40.0342 145.908 40.1024 146.295 40.095C146.841 40.0925 147.381 39.9804 147.885 39.7651C148.409 39.5461 148.888 39.2272 149.296 38.8253C149.728 38.3938 150.083 37.8878 150.345 37.3305C150.641 36.6981 150.831 36.0191 150.906 35.322C151.001 34.6588 150.973 33.9834 150.825 33.3305C150.699 32.7886 150.464 32.2795 150.135 31.8357C149.824 31.4215 149.418 31.0927 148.952 30.8789C148.477 30.6591 147.961 30.547 147.44 30.5502C147.038 30.5457 146.638 30.6132 146.259 30.7499C145.928 30.8698 145.61 31.0236 145.309 31.2088C144.994 31.3977 144.698 31.6183 144.426 31.8673L143.596 38.7766Z" fill="white" />
  <path d="M109 39H105V43H109V39Z" fill="white" />
</svg>