<svg width="22" height="23" viewBox="0 0 22 23" fill="none" xmlns="http://www.w3.org/2000/svg">
  <path d="M17.7857 2.19726L18.4082 6.12384L21.9898 7.94472L20.1837 11.5051L22 15.0655L18.3878 16.8863L17.7653 20.8129L13.7959 20.1924L10.9694 23L8.13265 20.1517L4.19388 20.8027L3.56122 16.8456L0 15.0349L1.81633 11.4746L0.0102041 7.94472L3.59184 6.10349L4.21429 2.20743L8.16327 2.85847L11 0L13.8265 2.81778L17.7857 2.19726ZM8.44898 6.41884C8.04304 6.41884 7.65372 6.5796 7.36667 6.86576C7.07963 7.15192 6.91837 7.54003 6.91837 7.94472C6.91837 8.3494 7.07963 8.73751 7.36667 9.02367C7.65372 9.30983 8.04304 9.47059 8.44898 9.47059C8.85492 9.47059 9.24424 9.30983 9.53129 9.02367C9.81833 8.73751 9.97959 8.3494 9.97959 7.94472C9.97959 7.54003 9.81833 7.15192 9.53129 6.86576C9.24424 6.5796 8.85492 6.41884 8.44898 6.41884ZM13.551 13.5396C13.1451 13.5396 12.7558 13.7003 12.4687 13.9865C12.1817 14.2727 12.0204 14.6608 12.0204 15.0655C12.0204 15.4701 12.1817 15.8583 12.4687 16.1444C12.7558 16.4306 13.1451 16.5913 13.551 16.5913C13.957 16.5913 14.3463 16.4306 14.6333 16.1444C14.9204 15.8583 15.0816 15.4701 15.0816 15.0655C15.0816 14.6608 14.9204 14.2727 14.6333 13.9865C14.3463 13.7003 13.957 13.5396 13.551 13.5396ZM7.33673 16.5913L16.102 7.85316L14.6633 6.41884L5.89796 15.157L7.33673 16.5913Z" fill="black" />
</svg>