<svg width="18" height="18" viewBox="0 0 18 18" fill="none" xmlns="http://www.w3.org/2000/svg">
  <path d="M0 3.25C0 2.38805 0.34241 1.5614 0.951903 0.951903C1.5614 0.34241 2.38805 0 3.25 0H14.75C15.612 0 16.4386 0.34241 17.0481 0.951903C17.6576 1.5614 18 2.38805 18 3.25V14.75C18 15.612 17.6576 16.4386 17.0481 17.0481C16.4386 17.6576 15.612 18 14.75 18H3.25C2.38805 18 1.5614 17.6576 0.951903 17.0481C0.34241 16.4386 0 15.612 0 14.75V3.25ZM9.5 6.25C9.5 6.664 9.836 7 10.25 7H13.75C13.9489 7 14.1397 6.92098 14.2803 6.78033C14.421 6.63968 14.5 6.44891 14.5 6.25C14.5 6.05109 14.421 5.86032 14.2803 5.71967C14.1397 5.57902 13.9489 5.5 13.75 5.5H10.25C10.0511 5.5 9.86032 5.57902 9.71967 5.71967C9.57902 5.86032 9.5 6.05109 9.5 6.25ZM10.25 11C10.0511 11 9.86032 11.079 9.71967 11.2197C9.57902 11.3603 9.5 11.5511 9.5 11.75C9.5 11.9489 9.57902 12.1397 9.71967 12.2803C9.86032 12.421 10.0511 12.5 10.25 12.5H13.75C13.9489 12.5 14.1397 12.421 14.2803 12.2803C14.421 12.1397 14.5 11.9489 14.5 11.75C14.5 11.5511 14.421 11.3603 14.2803 11.2197C14.1397 11.079 13.9489 11 13.75 11H10.25ZM7.78 5.78C7.85369 5.71134 7.91279 5.62854 7.95378 5.53654C7.99477 5.44454 8.01682 5.34522 8.01859 5.24452C8.02037 5.14382 8.00184 5.04379 7.96412 4.9504C7.9264 4.85701 7.87026 4.77218 7.79904 4.70096C7.72782 4.62974 7.64299 4.5736 7.5496 4.53588C7.45621 4.49816 7.35618 4.47963 7.25548 4.48141C7.15478 4.48319 7.05546 4.50523 6.96346 4.54622C6.87146 4.58721 6.78866 4.64631 6.72 4.72L5.25 6.19L4.78 5.72C4.63783 5.58752 4.44978 5.5154 4.25548 5.51882C4.06118 5.52225 3.87579 5.60097 3.73838 5.73838C3.60097 5.87579 3.52225 6.06118 3.51883 6.25548C3.5154 6.44978 3.58752 6.63783 3.72 6.78L4.72 7.78C4.86063 7.92045 5.05125 7.99934 5.25 7.99934C5.44875 7.99934 5.63937 7.92045 5.78 7.78L7.78 5.78ZM7.78 10.22C7.63937 10.0795 7.44875 10.0007 7.25 10.0007C7.05125 10.0007 6.86063 10.0795 6.72 10.22L5.25 11.69L4.78 11.22C4.63783 11.0875 4.44978 11.0154 4.25548 11.0188C4.06118 11.0223 3.87579 11.101 3.73838 11.2384C3.60097 11.3758 3.52225 11.5612 3.51883 11.7555C3.5154 11.9498 3.58752 12.1378 3.72 12.28L4.72 13.28C4.86063 13.4205 5.05125 13.4993 5.25 13.4993C5.44875 13.4993 5.63937 13.4205 5.78 13.28L7.78 11.28C7.92045 11.1394 7.99934 10.9488 7.99934 10.75C7.99934 10.5512 7.92045 10.3606 7.78 10.22Z" fill="black" />
</svg>