<svg width="13" height="17" viewBox="0 0 13 17" fill="none" xmlns="http://www.w3.org/2000/svg">
  <path d="M6.5 8.5C5.60625 8.5 4.875 7.735 4.875 6.8C4.875 5.865 5.60625 5.1 6.5 5.1C7.39375 5.1 8.125 5.865 8.125 6.8C8.125 7.735 7.39375 8.5 6.5 8.5ZM11.375 6.97C11.375 3.8845 9.22188 1.7 6.5 1.7C3.77813 1.7 1.625 3.8845 1.625 6.97C1.625 8.959 3.20937 11.594 6.5 14.739C9.79063 11.594 11.375 8.959 11.375 6.97ZM6.5 0C9.9125 0 13 2.737 13 6.97C13 9.792 10.8306 13.1325 6.5 17C2.16937 13.1325 0 9.792 0 6.97C0 2.737 3.0875 0 6.5 0Z" fill="white" />
</svg>